<svg width="40" height="41" viewBox="0 0 40 41" fill="none" xmlns="http://www.w3.org/2000/svg">
<path d="M18.12 2.25362C24.88 5.40662 26.443 9.33962 26.776 11.4036C27.152 13.7596 26.321 15.5406 25.493 16.3476C24.655 17.1676 23.771 17.5816 22.865 17.5816C22.604 17.5816 22.359 17.5466 22.132 17.4886L17.161 3.00362C17.1438 2.87839 17.1593 2.75083 17.2061 2.6334C17.2529 2.51597 17.3294 2.41268 17.428 2.33362L18.12 2.25362ZM18.12 2.25162C18.0083 2.20017 17.8846 2.18059 17.7624 2.19506C17.6403 2.20954 17.5246 2.25749 17.428 2.33362L18.12 2.25162ZM18.12 2.25162L17.908 2.70462C24.528 5.79462 25.977 9.59262 26.282 11.4806C26.635 13.6886 25.848 15.3026 25.144 15.9886H25.143C24.371 16.7456 23.606 17.0806 22.865 17.0806C22.6461 17.0803 22.4281 17.0507 22.217 16.9926C22.891 12.8076 22.289 9.79462 21.109 6.71262C21.0547 6.56398 20.971 6.4278 20.8629 6.31217C20.7549 6.19654 20.6247 6.10382 20.4801 6.03954C20.3355 5.97526 20.1794 5.94072 20.0212 5.93799C19.8629 5.93525 19.7058 5.96437 19.559 6.02362L19.552 6.02662C19.2608 6.15371 19.0301 6.38857 18.9082 6.68197C18.7863 6.97538 18.7826 7.30458 18.898 7.60062C20.023 10.5406 20.532 13.2406 19.761 17.2646C19.299 17.4036 18.841 17.5226 18.406 17.5226C17.27 17.5226 16.339 17.1556 15.641 16.5176C14.941 15.8776 14.445 14.9366 14.241 13.7426C13.713 10.6486 15.065 8.49862 16.241 6.65062L16.263 6.61562C16.647 6.01162 17.029 5.40962 17.295 4.82562C17.568 4.22762 17.744 3.59562 17.656 2.93762C17.6502 2.89854 17.6545 2.85863 17.6685 2.82168C17.6825 2.78474 17.7057 2.75201 17.736 2.72662L17.428 2.33362L18.12 2.25162ZM18.12 2.25162L17.909 2.70562C17.8809 2.6927 17.8498 2.68752 17.819 2.69062C17.789 2.69517 17.7607 2.70759 17.737 2.72662L17.428 2.33362L18.12 2.25162ZM21.559 17.8256C21.5153 17.8081 21.472 17.7897 21.429 17.7706L21.324 17.7256C21.233 17.7756 21.138 17.8226 21.041 17.8666L21.559 17.8256ZM21.559 17.8256L21.16 17.2436C21.146 17.3217 21.1317 17.3997 21.117 17.4776L21.056 17.5826L21.093 17.6036L21.041 17.8666L21.559 17.8256ZM21.559 17.8256C21.2952 19.1349 20.9566 20.428 20.545 21.6986L21.559 17.8256ZM21.559 17.8256L20.545 21.6986L21.559 17.8256ZM21.041 17.8666C20.7844 19.1098 20.4599 20.3379 20.069 21.5456L21.041 17.8666ZM21.041 17.8666C20.905 17.9288 20.7665 17.9855 20.626 18.0366L21.041 17.8666ZM20.069 21.5456L20.626 18.0356L20.069 21.5456ZM20.069 21.5456C20.037 21.6446 19.957 21.6896 19.891 21.6896C19.8759 21.6893 19.861 21.6862 19.847 21.6806L19.838 21.6776C19.753 21.6476 19.675 21.5316 19.718 21.3936C20.0744 20.2935 20.3761 19.1765 20.622 18.0466L20.069 21.5456ZM20.069 21.5456L20.622 18.0456L20.069 21.5456ZM20.626 18.0356L20.624 18.0456H20.622L20.626 18.0356ZM20.626 18.0356L20.622 18.0456L20.626 18.0356ZM20.545 21.6986C20.502 21.8392 20.4155 21.9624 20.298 22.0507C20.1805 22.1389 20.038 22.1876 19.891 22.1896C19.8179 22.1889 19.7454 22.1754 19.677 22.1496C19.315 22.0266 19.122 21.6196 19.241 21.2426L20.545 21.6986ZM3.26101 25.5236L3.66201 25.2256L3.65001 25.2086L3.63701 25.1936L3.50401 25.0436C3.12501 24.6156 2.82601 24.2766 2.59601 23.7986C2.34601 23.2786 2.16701 22.5576 2.16701 21.3576V11.3576C2.16701 10.6406 2.40201 10.1536 2.72701 9.84462C3.05701 9.53062 3.52501 9.35762 4.05801 9.35762C4.59101 9.35762 5.05801 9.53062 5.38901 9.84462C5.71401 10.1546 5.94901 10.6406 5.94901 11.3576V18.4926C5.91665 18.5097 5.88497 18.5281 5.85401 18.5476C5.67813 18.663 5.52154 18.8054 5.39001 18.9696C5.07826 19.3631 4.86378 19.8246 4.76401 20.3166C4.52701 21.4236 4.77901 22.8396 6.07201 24.2066L9.56801 28.1096L9.57101 28.1136C9.67557 28.2308 9.80375 28.3246 9.94714 28.3888C10.0905 28.4529 10.2459 28.486 10.403 28.4858C10.56 28.4856 10.7153 28.4521 10.8585 28.3877C11.0018 28.3232 11.1297 28.2291 11.234 28.1116C11.4406 27.8794 11.5544 27.5793 11.5539 27.2685C11.5533 26.9578 11.4384 26.6581 11.231 26.4266L7.41301 22.1846L7.41001 22.1816C6.87801 21.6016 6.87501 20.6666 7.42301 20.0666L7.42401 20.0656C7.49601 19.9856 7.73901 19.7646 8.07601 19.7036C8.36901 19.6506 8.85101 19.6976 9.48601 20.3596L13.301 24.6146L13.306 24.6196L13.311 24.6246C14.946 26.3446 16.311 28.4696 16.311 31.3566V38.0236C16.311 38.1196 16.311 38.1836 16.304 38.2416C16.302 38.2663 16.2963 38.2906 16.287 38.3136C16.2004 38.3471 16.1078 38.3621 16.015 38.3576H9.63801C9.59656 38.3582 9.55513 38.3558 9.51401 38.3506C9.476 38.3464 9.43889 38.3363 9.40401 38.3206C9.38929 38.3149 9.37671 38.3048 9.36801 38.2916C9.36301 38.2836 9.34101 38.2436 9.34101 38.1416V32.8596L9.24401 32.7276C8.83201 32.1676 7.43501 30.2916 6.14401 28.5566L4.41801 26.2396L3.86801 25.5016L3.71601 25.2966L3.67601 25.2436L3.66601 25.2296L3.66301 25.2266V25.2256L3.26101 25.5236ZM34.051 18.4926V11.3576C34.051 10.6406 34.286 10.1536 34.611 9.84462C34.941 9.53062 35.409 9.35762 35.942 9.35762C36.475 9.35762 36.942 9.53062 37.273 9.84462C37.598 10.1546 37.833 10.6406 37.833 11.3576V21.3576C37.833 22.5576 37.655 23.2776 37.405 23.7986C37.175 24.2766 36.875 24.6156 36.497 25.0436L36.364 25.1936L36.351 25.2086L36.339 25.2256L36.739 25.5236L36.339 25.2256H36.338L36.335 25.2296L36.325 25.2436L36.285 25.2966L36.133 25.5016L35.583 26.2396L33.857 28.5566C32.8215 29.945 31.7882 31.335 30.757 32.7266L30.66 32.8596V38.1406C30.66 38.2436 30.638 38.2836 30.632 38.2916C30.6238 38.3042 30.612 38.314 30.598 38.3196C30.5628 38.3354 30.5254 38.3455 30.487 38.3496C30.4459 38.3548 30.4045 38.3572 30.363 38.3566H23.986C23.8933 38.3615 23.8007 38.3468 23.714 38.3136C23.7048 38.2906 23.6991 38.2663 23.697 38.2416C23.6898 38.1692 23.6871 38.0964 23.689 38.0236V31.3566C23.689 28.4696 25.054 26.3436 26.689 24.6246L26.695 24.6196L26.7 24.6146L30.515 20.3596C31.15 19.6976 31.632 19.6506 31.925 19.7036C32.262 19.7636 32.505 19.9836 32.581 20.0666C33.126 20.6666 33.123 21.6016 32.593 22.1826L32.591 22.1846L28.77 26.4276H28.768C28.5613 26.6594 28.4471 26.9591 28.4471 27.2696C28.4471 27.5802 28.5613 27.8799 28.768 28.1116C28.8723 28.2289 29.0002 28.3229 29.1433 28.3873C29.2865 28.4516 29.4416 28.485 29.5986 28.4852C29.7555 28.4854 29.9107 28.4524 30.054 28.3883C30.1973 28.3243 30.3255 28.2307 30.43 28.1136L30.433 28.1096L33.928 24.2056C35.222 22.8396 35.473 21.4236 35.237 20.3166C35.1368 19.8249 34.922 19.3637 34.61 18.9706C34.4786 18.8061 34.322 18.6633 34.146 18.5476C34.1151 18.5281 34.0834 18.5097 34.051 18.4926Z" fill="#2C70C1" stroke="#2C70C1"/>
</svg>
